<?xml version="1.0" standalone="no"?>
<!-- Generated by Malz++Kassner CAD6 - www.malz-kassner.com -->

<svg xmlns="http://www.w3.org/2000/svg" version="1.0" width="259.28" height="239.02">
<g font-family="Arial" fill="rgb(255,0,0)" fill-rule="evenodd" font-weight="400" font-size="113.39">
<text x=" 122.11" y=" 189.08">A
</text>
</g>
<g fill="none" fill-rule="evenodd" stroke="rgb(0,0,255)" stroke-width="0.94" stroke-linecap="round" stroke-linejoin="round">
<path d=" M 153.22 107.87 L 107.87 107.87"/>
</g>
<g fill="none" fill-rule="evenodd" stroke="rgb(0,0,255)" stroke-width="0.94" stroke-linecap="round" stroke-linejoin="round">
<path d=" M 122.01 189.07 L 107.87 189.07"/>
</g>
<g fill="rgb(0,0,255)" fill-rule="evenodd" stroke="rgb(0,0,255)" stroke-width="0.94" stroke-linecap="round" stroke-linejoin="round">
<path d=" M 115.43 107.87 L 113.79 117.18 L 117.07 117.18 Z"/>
</g>
<g fill="rgb(0,0,255)" fill-rule="evenodd" stroke="rgb(0,0,255)" stroke-width="0.94" stroke-linecap="round" stroke-linejoin="round">
<path d=" M 115.43 189.07 L 117.07 179.77 L 113.79 179.77 Z"/>
</g>
<g fill="none" fill-rule="evenodd" stroke="rgb(0,0,255)" stroke-width="0.94" stroke-linecap="round" stroke-linejoin="round">
<path d=" M 115.43 107.87 L 115.43 189.07"/>
</g>
<g font-family="Arial" fill="rgb(0,0,255)" fill-rule="evenodd" font-weight="400" font-size="9.45">
<text x=" 111.65" y=" 184.46" transform="translate(111.646765 184.458236) rotate(-90.000000) skewX(0.000000) translate(-111.646765 -184.458236)">Taille de la police
</text>
</g>
<g fill="none" fill-rule="evenodd" stroke="rgb(255,0,0)" stroke-width="1.89" stroke-linecap="round" stroke-linejoin="round">
<path d=" M 62.46 62.46 L 62.46 237.13 L 257.39 237.13 L 257.39 62.46 Z"/>
</g>
<g fill="none" fill-rule="evenodd" stroke="rgb(0,0,255)" stroke-width="0.94" stroke-linecap="round" stroke-linejoin="round">
<path d=" M 257.39 62.46 L 257.39 17.10"/>
</g>
<g fill="none" fill-rule="evenodd" stroke="rgb(0,0,255)" stroke-width="0.94" stroke-linecap="round" stroke-linejoin="round">
<path d=" M 62.46 62.46 L 62.46 17.10"/>
</g>
<g fill="rgb(0,0,255)" fill-rule="evenodd" stroke="rgb(0,0,255)" stroke-width="0.94" stroke-linecap="round" stroke-linejoin="round">
<path d=" M 257.39 24.66 L 248.09 23.02 L 248.09 26.30 Z"/>
</g>
<g fill="rgb(0,0,255)" fill-rule="evenodd" stroke="rgb(0,0,255)" stroke-width="0.94" stroke-linecap="round" stroke-linejoin="round">
<path d=" M 62.46 24.66 L 71.76 26.30 L 71.76 23.02 Z"/>
</g>
<g fill="none" fill-rule="evenodd" stroke="rgb(0,0,255)" stroke-width="0.94" stroke-linecap="round" stroke-linejoin="round">
<path d=" M 257.39 24.66 L 62.46 24.66"/>
</g>
<g font-family="Arial" fill="rgb(0,0,255)" fill-rule="evenodd" font-weight="400" font-size="18.90">
<text x=" 127.36" y=" 17.10">Largeur
</text>
</g>
<g fill="none" fill-rule="evenodd" stroke="rgb(0,0,255)" stroke-width="0.94" stroke-linecap="round" stroke-linejoin="round">
<path d=" M 62.46 62.46 L 17.10 62.46"/>
</g>
<g fill="none" fill-rule="evenodd" stroke="rgb(0,0,255)" stroke-width="0.94" stroke-linecap="round" stroke-linejoin="round">
<path d=" M 62.46 237.13 L 17.10 237.13"/>
</g>
<g fill="rgb(0,0,255)" fill-rule="evenodd" stroke="rgb(0,0,255)" stroke-width="0.94" stroke-linecap="round" stroke-linejoin="round">
<path d=" M 24.66 62.46 L 23.02 71.76 L 26.30 71.76 Z"/>
</g>
<g fill="rgb(0,0,255)" fill-rule="evenodd" stroke="rgb(0,0,255)" stroke-width="0.94" stroke-linecap="round" stroke-linejoin="round">
<path d=" M 24.66 237.13 L 26.30 227.82 L 23.02 227.82 Z"/>
</g>
<g fill="none" fill-rule="evenodd" stroke="rgb(0,0,255)" stroke-width="0.94" stroke-linecap="round" stroke-linejoin="round">
<path d=" M 24.66 62.46 L 24.66 237.13"/>
</g>
<g font-family="Arial" fill="rgb(0,0,255)" fill-rule="evenodd" font-weight="400" font-size="18.90">
<text x=" 17.10" y=" 183.40" transform="translate(17.102362 183.401580) rotate(-90.000000) skewX(0.000000) translate(-17.102362 -183.401580)">Hauteur
</text>
</g>

<!-- End of File -->
</svg>